<?xml version="1.0" standalone="no"?><!DOCTYPE svg PUBLIC "-//W3C//DTD SVG 1.1//EN" "http://www.w3.org/Graphics/SVG/1.1/DTD/svg11.dtd"><svg t="1607226492145" class="icon" viewBox="0 0 1024 1024" version="1.1" xmlns="http://www.w3.org/2000/svg" p-id="1439" xmlns:xlink="http://www.w3.org/1999/xlink" width="200" height="200"><defs><style type="text/css"></style></defs><path d="M980.072098 548.545061H43.927902a36.914203 36.914203 0 0 1-36.914203-36.914203 36.914203 36.914203 0 0 1 36.914203-36.914203h936.144196a37.652487 37.652487 0 0 1 36.914203 36.914203 36.914203 36.914203 0 0 1-36.914203 36.914203z" p-id="1440" fill="#bfbfbf"></path><path d="M512 1024a36.914203 36.914203 0 0 1-36.914203-36.914203V36.914203a36.914203 36.914203 0 0 1 36.914203-36.914203 36.914203 36.914203 0 0 1 36.914203 36.914203v950.171594a37.652487 37.652487 0 0 1-36.914203 36.914203z" p-id="1441" fill="#bfbfbf"></path></svg>