<?xml version="1.0" standalone="no"?><!DOCTYPE svg PUBLIC "-//W3C//DTD SVG 1.1//EN" "http://www.w3.org/Graphics/SVG/1.1/DTD/svg11.dtd"><svg t="1607186459117" class="icon" viewBox="0 0 1024 1024" version="1.1" xmlns="http://www.w3.org/2000/svg" p-id="1044" xmlns:xlink="http://www.w3.org/1999/xlink" width="200" height="200"><defs><style type="text/css"></style></defs><path d="M995.217989 995.217989L949.806371 949.806371c31.980012-30.381012-7.035603-157.021861-137.194254-331.312929l50.84822-38.376015c70.675828 94.341037 223.860087 322.998126 131.757652 415.100562zM676.377264 456.034978c-17.269207-18.548407-34.858214-36.777014-53.406621-55.005621s-42.853217-42.213616-63.960025-62.041225l43.492817-47.010618c22.066209 20.467208 44.132417 41.574016 66.198626 63.960025s37.096814 37.736415 54.685822 56.604622zM401.668957 208.189881C206.910681 63.960025 99.138039 48.929419 74.193629 73.873829L28.782011 28.782011c91.462836-91.143036 317.881324 59.163023 410.943161 127.92005z" p-id="1045" fill="#2c2c2c"></path><path d="M347.942536 455.715178l-47.010618-43.492817q26.54341-28.142411 54.685821-56.604622C595.787633 115.447845 892.562149-73.873829 995.217989 28.782011L949.806371 73.873829C904.714553 28.782011 668.062461 133.356652 400.709557 400.709557c-16.949407 18.548407-35.817614 36.777014-52.767021 55.005621zM28.782011 995.217989C-63.960025 901.196752 95.940037 666.46346 167.895066 569.883823L218.743285 607.620237c-135.915053 179.72767-176.209869 310.206121-144.549656 341.546534zM396.552155 708.037477c-13.751405-12.792005-27.183011-26.22361-40.934416-39.975016A1763.377889 1763.377889 0 0 1 63.960025 296.134916C-6.396002 168.534666-18.548407 76.11243 28.782011 28.782011l45.411618 45.091818c-17.908807 17.908807-16.629606 78.670831 45.731418 191.880075a1675.432854 1675.432854 0 0 0 281.10431 357.536539c13.111805 13.431605 26.22361 26.22361 39.655215 38.695816zM917.506558 1023.3604c-106.813242 0-259.357901-102.33604-331.632729-155.422861l38.056215-51.48782c193.798876 142.950656 301.251718 158.301062 325.876327 133.356652l45.411618 45.411618a105.534041 105.534041 0 0 1-77.711431 28.142411z" p-id="1046" fill="#2c2c2c"></path><path d="M107.133042 1023.3604a106.493442 106.493442 0 0 1-78.351031-28.142411l45.411618-45.411618c45.091818 45.411618 281.42411-59.482823 548.777014-326.835728S995.217989 119.285447 949.806371 73.873829L995.217989 28.782011c102.65584 102.65584-86.985634 399.430356-326.835728 639.60025C473.943785 863.460337 242.728295 1023.3604 107.133042 1023.3604z" p-id="1047" fill="#2c2c2c"></path><path d="M480.019988 480.019988h63.960024v63.960024h-63.960024zM0.3198 480.019988h63.960025v63.960024h-63.960025zM960.359775 480.019988h63.960025v63.960024h-63.960025zM480.339788 0h63.960025v63.960025h-63.960025zM480.339788 960.039975h63.960025v63.960025h-63.960025z" p-id="1048" fill="#2c2c2c"></path></svg>